# Blender v3.5.1 OBJ File: ''
# www.blender.org
mtllib ghost.mtl
o Sphere.001
v 0.330000 -0.000000 0.000000
v 0.304880 0.126285 0.000000
v 0.281673 0.126285 0.116672
v 0.304880 -0.000000 0.126285
v 0.233345 0.233345 0.000000
v 0.126285 0.304880 0.000000
v 0.116672 0.304880 0.048328
v 0.215583 0.233345 0.089297
v 0.000000 0.330000 0.000000
v 0.165000 0.233345 0.165000
v 0.215583 0.126285 0.215583
v 0.089297 0.304880 0.089297
v 0.233345 -0.000000 0.233345
v 0.048327 0.304880 0.116673
v 0.116672 0.126285 0.281673
v 0.126285 -0.000000 0.304880
v 0.089297 0.233345 0.215583
v -0.000000 0.126285 0.304880
v -0.000000 0.000000 0.330000
v 0.000000 0.304880 0.126286
v 0.000000 0.233345 0.233345
v -0.089297 0.233345 0.215583
v -0.116673 0.126285 0.281673
v -0.048328 0.304880 0.116672
v -0.126286 0.000000 0.304880
v -0.165000 0.233345 0.165000
v -0.215583 0.126285 0.215583
v -0.089297 0.304880 0.089297
v -0.233345 0.000000 0.233345
v -0.281673 0.126285 0.116672
v -0.304880 0.000000 0.126285
v -0.116673 0.304880 0.048328
v -0.215583 0.233345 0.089297
v -0.304880 0.126285 -0.000000
v -0.330000 0.000000 -0.000000
v -0.126286 0.304880 -0.000000
v -0.233345 0.233345 -0.000000
v -0.215583 0.233345 -0.089297
v -0.281673 0.126285 -0.116673
v -0.116673 0.304880 -0.048328
v -0.304880 0.000000 -0.126286
v -0.165000 0.233345 -0.165000
v -0.215583 0.126285 -0.215583
v -0.089297 0.304880 -0.089297
v -0.233345 0.000000 -0.233345
v -0.116673 0.126285 -0.281673
v -0.126285 0.000000 -0.304880
v -0.048328 0.304880 -0.116672
v -0.089297 0.233345 -0.215583
v 0.000000 0.304880 -0.126285
v 0.000000 0.233345 -0.233345
v 0.000000 0.126285 -0.304880
v 0.000000 0.000000 -0.330000
v 0.089297 0.233345 -0.215583
v 0.116673 0.126285 -0.281673
v 0.048327 0.304880 -0.116672
v 0.126286 -0.000000 -0.304880
v 0.089297 0.304880 -0.089297
v 0.215583 0.126285 -0.215583
v 0.233345 -0.000000 -0.233345
v 0.165000 0.233345 -0.165000
v 0.281673 0.126285 -0.116672
v 0.304880 -0.000000 -0.126285
v 0.116672 0.304880 -0.048327
v 0.215583 0.233345 -0.089297
v -0.126286 -0.332059 0.304880
v -0.000000 -0.498685 0.330000
v -0.000000 -0.498685 -0.330000
v -0.126285 -0.332059 -0.304880
v 0.126285 -0.332059 0.304880
v 0.330000 -0.498685 0.000000
v 0.304880 -0.332059 -0.126285
v 0.233345 -0.498685 0.233345
v 0.304880 -0.332059 0.126285
v -0.233345 -0.498685 -0.233345
v -0.304880 -0.332059 -0.126286
v 0.233345 -0.498685 -0.233345
v 0.126286 -0.332059 -0.304880
v -0.304880 -0.332059 0.126285
v -0.233345 -0.498685 0.233345
v -0.330000 -0.498685 -0.000000
vt 0.209553 0.305898
vt 0.206552 0.384350
vt 0.133717 0.384350
vt 0.130716 0.305898
vt 0.720017 0.578096
vt 0.789482 0.590885
vt 0.789482 0.621054
vt 0.720017 0.633842
vt 0.198008 0.453914
vt 0.142262 0.453914
vt 0.866677 0.605969
vt 0.090759 0.456075
vt 0.066426 0.387173
vt 0.800928 0.648927
vt 0.057881 0.308954
vt 0.741167 0.685345
vt 0.822078 0.670260
vt 0.014923 0.392389
vt 0.002135 0.314600
vt 0.780247 0.724763
vt 0.051341 0.460067
vt 0.282388 0.771156
vt 0.273844 0.849375
vt 0.206552 0.846552
vt 0.209553 0.768100
vt 0.849711 0.681805
vt 0.831307 0.746096
vt 0.249510 0.918276
vt 0.198008 0.916116
vt 0.142262 0.916116
vt 0.133717 0.846552
vt 0.879622 0.681805
vt 0.130716 0.768100
vt 0.886575 0.746096
vt 0.090759 0.918276
vt 0.066426 0.849375
vt 0.907256 0.670260
vt 0.057881 0.771156
vt 0.937635 0.724763
vt 0.014923 0.854591
vt 0.002135 0.776801
vt 0.928406 0.648927
vt 0.976715 0.685345
vt 0.342404 0.069065
vt 0.380178 0.002135
vt 0.419508 0.006920
vt 0.393791 0.075318
vt 0.383673 0.153349
vt 0.461012 0.079495
vt 0.456432 0.157871
vt 0.939852 0.621054
vt 0.997865 0.633842
vt 0.470956 0.010118
vt 0.526691 0.011241
vt 0.533833 0.080962
vt 0.939852 0.590885
vt 0.535253 0.159459
vt 0.997865 0.578097
vt 0.578226 0.010118
vt 0.601167 0.079495
vt 0.928406 0.563012
vt 0.608135 0.157871
vt 0.976715 0.526594
vt 0.652764 0.075318
vt 0.663983 0.153349
vt 0.907256 0.541679
vt 0.937635 0.487176
vt 0.668253 0.069065
vt 0.706027 0.002135
vt 0.745357 0.006920
vt 0.719640 0.075318
vt 0.879622 0.530133
vt 0.886575 0.465843
vt 0.796805 0.010118
vt 0.786861 0.079495
vt 0.709522 0.153349
vt 0.782281 0.157871
vt 0.852539 0.011241
vt 0.859681 0.080962
vt 0.849711 0.530133
vt 0.861101 0.159459
vt 0.831307 0.465843
vt 0.822078 0.541679
vt 0.927016 0.079495
vt 0.933984 0.157871
vt 0.780247 0.487176
vt 0.904075 0.010118
vt 0.338134 0.314600
vt 0.325346 0.392389
vt 0.273843 0.387173
vt 0.282388 0.308954
vt 0.800928 0.563012
vt 0.741167 0.526594
vt 0.288928 0.460067
vt 0.249510 0.456075
vt 0.130716 0.565834
vt 0.209553 0.464337
vt 0.776163 0.461572
vt 0.705448 0.355575
vt 0.282388 0.568889
vt 0.209553 0.002135
vt 0.282388 0.106687
vt 0.057881 0.005191
vt 0.130716 0.103632
vt 0.002135 0.112333
vt 0.602017 0.461573
vt 0.531179 0.361684
vt 0.338134 0.010836
vt 0.857027 0.361684
vt 0.927865 0.461573
vt 0.659909 0.355575
vt 0.002135 0.574535
vt 0.057881 0.467392
vt 0.450314 0.461573
vt 0.379599 0.355575
vt 0.715747 0.575192
vt 0.715747 0.729836
vt 0.606397 0.839185
vt 0.451754 0.839185
vt 0.342404 0.729836
vt 0.342404 0.575192
vt 0.451754 0.465843
vt 0.606397 0.465843
vn 0.9626 0.1915 0.1915
vn 0.5522 0.8264 0.1098
vn 0.8203 0.5481 0.1632
vn 0.1949 0.9800 0.0388
vn 0.6954 0.5481 0.4647
vn 0.1653 0.9800 0.1104
vn 0.8161 0.1915 0.5453
vn 0.4681 0.8264 0.3128
vn 0.1104 0.9800 0.1653
vn 0.5453 0.1915 0.8161
vn 0.3128 0.8264 0.4681
vn 0.4647 0.5481 0.6954
vn 0.1915 0.1915 0.9626
vn 0.1098 0.8264 0.5522
vn 0.1632 0.5481 0.8203
vn 0.0388 0.9800 0.1949
vn -0.1632 0.5481 0.8203
vn -0.0388 0.9800 0.1949
vn -0.1915 0.1915 0.9626
vn -0.1098 0.8264 0.5522
vn -0.4647 0.5481 0.6954
vn -0.1104 0.9800 0.1653
vn -0.5453 0.1915 0.8161
vn -0.3128 0.8264 0.4681
vn -0.8161 0.1915 0.5453
vn -0.4681 0.8264 0.3128
vn -0.6954 0.5481 0.4647
vn -0.1653 0.9800 0.1104
vn -0.9626 0.1915 0.1915
vn -0.5522 0.8264 0.1098
vn -0.8203 0.5481 0.1632
vn -0.1949 0.9800 0.0388
vn -0.8203 0.5481 -0.1632
vn -0.1949 0.9800 -0.0388
vn -0.9626 0.1915 -0.1915
vn -0.5522 0.8264 -0.1098
vn -0.6954 0.5481 -0.4647
vn -0.1653 0.9800 -0.1104
vn -0.8161 0.1915 -0.5453
vn -0.4681 0.8264 -0.3128
vn -0.5453 0.1915 -0.8161
vn -0.3128 0.8264 -0.4681
vn -0.4647 0.5481 -0.6954
vn -0.1104 0.9800 -0.1653
vn -0.1098 0.8264 -0.5522
vn -0.1632 0.5481 -0.8203
vn -0.0388 0.9800 -0.1949
vn -0.1915 0.1915 -0.9626
vn 0.1632 0.5481 -0.8203
vn 0.0388 0.9800 -0.1949
vn 0.1915 0.1915 -0.9626
vn 0.1098 0.8264 -0.5522
vn 0.1104 0.9800 -0.1653
vn 0.5453 0.1915 -0.8161
vn 0.3128 0.8264 -0.4681
vn 0.4647 0.5481 -0.6954
vn 0.8161 0.1915 -0.5453
vn 0.4681 0.8264 -0.3128
vn 0.6954 0.5481 -0.4647
vn 0.1653 0.9800 -0.1104
vn 0.8203 0.5481 -0.1632
vn 0.1949 0.9800 -0.0388
vn 0.9626 0.1915 -0.1915
vn 0.5522 0.8264 -0.1098
vn -0.1951 0.0000 0.9808
vn -0.1951 0.0000 -0.9808
vn 0.1951 -0.0000 0.9808
vn 0.9808 -0.0000 -0.1951
vn 0.8315 -0.0000 0.5556
vn 0.5556 -0.0000 0.8315
vn -0.8315 0.0000 -0.5556
vn 0.8315 -0.0000 -0.5556
vn 0.1951 -0.0000 -0.9808
vn 0.5556 -0.0000 -0.8315
vn -0.5556 0.0000 -0.8315
vn -0.8315 0.0000 0.5556
vn -0.9808 0.0000 -0.1951
vn 0.9808 -0.0000 0.1951
vn -0.5556 0.0000 0.8315
vn -0.9808 0.0000 0.1951
vn -0.0000 -1.0000 -0.0000
usemtl Material.002
s 1
f 1/1/1 2/2/1 3/3/1 4/4/1
f 5/5/2 6/6/2 7/7/2 8/8/2
f 2/2/3 5/9/3 8/10/3 3/3/3
f 6/6/4 9/11/4 7/7/4
f 3/3/5 8/10/5 10/12/5 11/13/5
f 7/7/6 9/11/6 12/14/6
f 4/4/7 3/3/7 11/13/7 13/15/7
f 8/8/8 7/7/8 12/14/8 10/16/8
f 12/14/9 9/11/9 14/17/9
f 13/15/10 11/13/10 15/18/10 16/19/10
f 10/16/11 12/14/11 14/17/11 17/20/11
f 11/13/12 10/12/12 17/21/12 15/18/12
f 16/22/13 15/23/13 18/24/13 19/25/13
f 17/20/14 14/17/14 20/26/14 21/27/14
f 15/23/15 17/28/15 21/29/15 18/24/15
f 14/17/16 9/11/16 20/26/16
f 18/24/17 21/29/17 22/30/17 23/31/17
f 20/26/18 9/11/18 24/32/18
f 19/25/19 18/24/19 23/31/19 25/33/19
f 21/27/20 20/26/20 24/32/20 22/34/20
f 23/31/21 22/30/21 26/35/21 27/36/21
f 24/32/22 9/11/22 28/37/22
f 25/33/23 23/31/23 27/36/23 29/38/23
f 22/34/24 24/32/24 28/37/24 26/39/24
f 29/38/25 27/36/25 30/40/25 31/41/25
f 26/39/26 28/37/26 32/42/26 33/43/26
f 27/44/27 26/45/27 33/46/27 30/47/27
f 28/37/28 9/11/28 32/42/28
f 31/48/29 30/47/29 34/49/29 35/50/29
f 33/43/30 32/42/30 36/51/30 37/52/30
f 30/47/31 33/46/31 37/53/31 34/49/31
f 32/42/32 9/11/32 36/51/32
f 34/49/33 37/53/33 38/54/33 39/55/33
f 36/51/34 9/11/34 40/56/34
f 35/50/35 34/49/35 39/55/35 41/57/35
f 37/52/36 36/51/36 40/56/36 38/58/36
f 39/55/37 38/54/37 42/59/37 43/60/37
f 40/56/38 9/11/38 44/61/38
f 41/57/39 39/55/39 43/60/39 45/62/39
f 38/58/40 40/56/40 44/61/40 42/63/40
f 45/62/41 43/60/41 46/64/41 47/65/41
f 42/63/42 44/61/42 48/66/42 49/67/42
f 43/68/43 42/69/43 49/70/43 46/71/43
f 44/61/44 9/11/44 48/66/44
f 49/67/45 48/66/45 50/72/45 51/73/45
f 46/71/46 49/70/46 51/74/46 52/75/46
f 48/66/47 9/11/47 50/72/47
f 47/76/48 46/71/48 52/75/48 53/77/48
f 52/75/49 51/74/49 54/78/49 55/79/49
f 50/72/50 9/11/50 56/80/50
f 53/77/51 52/75/51 55/79/51 57/81/51
f 51/73/52 50/72/52 56/80/52 54/82/52
f 56/80/53 9/11/53 58/83/53
f 57/81/54 55/79/54 59/84/54 60/85/54
f 54/82/55 56/80/55 58/83/55 61/86/55
f 55/79/56 54/78/56 61/87/56 59/84/56
f 60/88/57 59/89/57 62/90/57 63/91/57
f 61/86/58 58/83/58 64/92/58 65/93/58
f 59/89/59 61/94/59 65/95/59 62/90/59
f 58/83/60 9/11/60 64/92/60
f 62/90/61 65/95/61 5/9/61 2/2/61
f 64/92/62 9/11/62 6/6/62
f 63/91/63 62/90/63 2/2/63 1/1/63
f 65/93/64 64/92/64 6/6/64 5/5/64
f 19/25/65 25/33/65 66/96/65 67/97/65
f 47/76/66 53/77/66 68/98/66 69/99/66
f 16/22/67 19/25/67 67/97/67 70/100/67
f 63/91/68 1/1/68 71/101/68 72/102/68
f 4/4/69 13/15/69 73/103/69 74/104/69
f 13/15/70 16/19/70 70/105/70 73/103/70
f 41/57/71 45/62/71 75/106/71 76/107/71
f 60/88/72 63/91/72 72/102/72 77/108/72
f 53/77/73 57/81/73 78/109/73 68/98/73
f 57/81/74 60/85/74 77/110/74 78/109/74
f 45/62/75 47/65/75 69/111/75 75/106/75
f 29/38/76 31/41/76 79/112/76 80/113/76
f 35/50/77 41/57/77 76/107/77 81/114/77
f 1/1/78 4/4/78 74/104/78 71/101/78
f 25/33/79 29/38/79 80/113/79 66/96/79
f 31/48/80 35/50/80 81/114/80 79/115/80
f 66/116/81 79/117/81 76/118/81 69/119/81 78/120/81 72/121/81 74/122/81 70/123/81
